<svg id="Layer_1" data-name="Layer 1" xmlns="http://www.w3.org/2000/svg" viewBox="0 0 289.81 289.88"><defs><style>.cls-1{fill:#27aae1;}.cls-2{font-size:88.21px;fill:#fff;font-family:bromello, bromello;}</style></defs><title>Artboard 1</title><polygon class="cls-1" points="236.83 159.25 228.59 145.07 270.73 71.56 186 71.82 144.23 0 102.91 72.08 19.08 72.34 52.98 130.63 61.22 144.81 19.08 218.32 103.82 218.06 145.58 289.88 186.9 217.8 270.73 217.54 236.83 159.25"/><polygon class="cls-1" points="195.06 223.3 200.22 207.74 283.21 190.63 226.91 127.31 253.07 48.46 171.69 65.23 115.99 2.58 94.76 66.58 89.59 82.15 6.6 99.25 62.91 162.57 36.74 241.43 118.12 224.66 173.82 287.3 195.06 223.3"/><polygon class="cls-1" points="218.2 87.64 202.22 83.97 177.38 2.95 119.64 64.97 38.67 46.34 63.02 125.77 5.9 187.12 71.61 202.24 87.59 205.92 112.43 286.93 170.17 224.92 251.14 243.55 226.79 164.11 283.91 102.76 218.2 87.64"/><polygon class="cls-1" points="229.11 105.37 214.34 98.23 208.14 13.73 138.06 61.35 63.26 25.18 69.33 108.05 0 155.16 60.71 184.51 75.47 191.65 81.67 276.16 151.76 228.53 226.56 264.7 220.48 181.84 289.81 134.72 229.11 105.37"/><polygon class="cls-1" points="235.26 122.78 222.2 112.87 232.81 28.8 154.7 61.64 88.51 11.42 78.11 93.85 0.83 126.34 54.55 167.1 67.61 177.02 57 261.09 135.11 228.24 201.3 278.47 211.7 196.03 288.98 163.54 235.26 122.78"/><text class="cls-2" transform="translate(54.83 163.05)">NEW</text></svg>