<svg id="Layer_1" data-name="Layer 1" xmlns="http://www.w3.org/2000/svg" viewBox="0 0 183 149.3"><defs><style>.cls-1,.cls-6{fill:#fbc60f;}.cls-2{fill:none;}.cls-2,.cls-4,.cls-5,.cls-6{stroke:#231f20;stroke-linecap:round;stroke-linejoin:round;stroke-width:3px;}.cls-3,.cls-5{fill:#ffc70a;}.cls-4{fill:#fff;}.cls-7{fill:#231f20;}</style></defs><title>Artboard 1</title><rect class="cls-1" x="43.38" y="18.17" width="72.83" height="125" rx="3.6" ry="3.6"/><rect class="cls-2" x="38.71" y="18.17" width="77.5" height="125" rx="3.6" ry="3.6"/><path class="cls-3" d="M20.71,36.64H21A10.66,10.66,0,0,1,31.71,47.3v57.19A10.66,10.66,0,0,1,21,115.16h-.33A11.67,11.67,0,0,1,9,103.49V48.3A11.67,11.67,0,0,1,20.71,36.64Z" transform="translate(40.75 151.79) rotate(180)"/><rect class="cls-2" x="4.37" y="36.64" width="27.33" height="78.52" rx="13.67" ry="13.67"/><line class="cls-2" x1="18.04" y1="84.63" x2="18.04" y2="143.17"/><line class="cls-2" x1="12.21" y1="96.48" x2="18.04" y2="110.23"/><line class="cls-2" x1="26.05" y1="89.61" x2="18.21" y2="105.36"/><rect class="cls-4" x="46.95" y="33.5" width="17.43" height="17.93" rx="3.6" ry="3.6"/><rect class="cls-4" x="68.74" y="33.5" width="17.43" height="17.93" rx="3.6" ry="3.6"/><rect class="cls-4" x="90.52" y="33.5" width="17.43" height="17.93" rx="3.6" ry="3.6"/><rect class="cls-4" x="46.95" y="57.83" width="17.43" height="17.93" rx="3.6" ry="3.6"/><rect class="cls-4" x="68.74" y="57.83" width="17.43" height="17.93" rx="3.6" ry="3.6"/><rect class="cls-4" x="90.52" y="57.83" width="17.43" height="17.93" rx="3.6" ry="3.6"/><rect class="cls-4" x="46.95" y="82.17" width="17.43" height="17.93" rx="3.6" ry="3.6"/><rect class="cls-4" x="68.74" y="82.17" width="17.43" height="17.93" rx="3.6" ry="3.6"/><rect class="cls-4" x="90.52" y="82.17" width="17.43" height="17.93" rx="3.6" ry="3.6"/><rect class="cls-4" x="46.95" y="106.5" width="17.43" height="17.93" rx="3.6" ry="3.6"/><rect class="cls-4" x="68.74" y="106.5" width="17.43" height="17.93" rx="3.6" ry="3.6"/><rect class="cls-4" x="90.52" y="106.5" width="17.43" height="17.93" rx="3.6" ry="3.6"/><rect class="cls-2" x="156.37" y="61.81" width="13.04" height="21.68" rx="3.6" ry="3.6"/><rect class="cls-4" x="104.07" y="88.27" width="67.01" height="54.89" rx="3.6" ry="3.6"/><path class="cls-5" d="M98.43,92.2a2.69,2.69,0,0,1,0-4l36.92-33.58a3.38,3.38,0,0,1,4.44,0l36.92,33.58a2.69,2.69,0,0,1,0,4Z"/><rect class="cls-6" x="111.54" y="103.64" width="25.04" height="18.87" rx="3.6" ry="3.6"/><line class="cls-2" x1="111.54" y1="138.39" x2="137.28" y2="138.39"/><path class="cls-5" d="M148.14,103.67h12.73a3.6,3.6,0,0,1,3.6,3.6v35.9a0,0,0,0,1,0,0H144.54a0,0,0,0,1,0,0v-35.9A3.6,3.6,0,0,1,148.14,103.67Z"/><ellipse class="cls-7" cx="159.28" cy="126.21" rx="1.61" ry="1.46"/><path class="cls-2" d="M137.68,29.54c-5.84-10.8.57-25,11.82-25.57l.75,0h2.62a15,15,0,0,1,3.72.47c9.87,2.53,14.43,15.45,9.15,25.15L151.66,55.39Z"/><circle class="cls-5" cx="151.72" cy="21" r="9.57"/></svg>