<svg id="Layer_1" data-name="Layer 1" xmlns="http://www.w3.org/2000/svg" viewBox="0 0 183 149.3"><defs><style>.cls-1{fill:none;}.cls-1,.cls-2,.cls-5{stroke:#231f20;stroke-linecap:round;stroke-linejoin:round;stroke-width:3px;}.cls-2,.cls-4{fill:#fff;}.cls-3,.cls-5{fill:#ffc70a;}</style></defs><title>icon--commute</title><path class="cls-1" d="M71.21,43.83H92.46a3.6,3.6,0,0,1,3.6,3.6v3.42a0,0,0,0,1,0,0H67.61a0,0,0,0,1,0,0V47.43A3.6,3.6,0,0,1,71.21,43.83Z"/><rect class="cls-2" x="22.76" y="57.4" width="118.14" height="80.09" rx="3.6" ry="3.6"/><path class="cls-3" d="M141.62,88.89l-50,5.87H72L22,88.89a2.81,2.81,0,0,1-2.95-2.64V57.65A2.81,2.81,0,0,1,22,55H141.62a2.81,2.81,0,0,1,2.95,2.64v28.6A2.81,2.81,0,0,1,141.62,88.89Z"/><path class="cls-1" d="M141.62,88.27l-50,6.49H72L22,88.27a2.94,2.94,0,0,1-2.95-2.92V53.73A2.94,2.94,0,0,1,22,50.82H141.62a2.94,2.94,0,0,1,2.95,2.92V85.35A2.94,2.94,0,0,1,141.62,88.27Z"/><rect class="cls-2" x="75.15" y="90.93" width="13.37" height="8.62" rx="3.6" ry="3.6"/><path class="cls-1" d="M131.65,141.85a4,4,0,0,1-7.25.08"/><path class="cls-1" d="M39.27,141.85a4,4,0,0,1-7.25.08"/><line class="cls-1" x1="29.1" y1="131.13" x2="134.57" y2="131.13"/><rect class="cls-4" x="109.21" y="28.21" width="54.93" height="76.68" rx="3.6" ry="3.6"/><rect class="cls-3" x="113.88" y="28.21" width="50.26" height="76.68" rx="3.6" ry="3.6"/><rect class="cls-1" x="109.21" y="28.21" width="54.93" height="76.68" rx="3.6" ry="3.6"/><line class="cls-1" x1="117.49" y1="96.4" x2="155.86" y2="96.4"/><line class="cls-1" x1="117.49" y1="87.15" x2="155.86" y2="87.15"/><line class="cls-1" x1="117.49" y1="77.91" x2="155.86" y2="77.91"/><line class="cls-1" x1="117.49" y1="68.66" x2="155.86" y2="68.66"/><line class="cls-1" x1="117.49" y1="59.41" x2="155.86" y2="59.41"/><line class="cls-1" x1="117.49" y1="50.16" x2="155.86" y2="50.16"/><polygon class="cls-2" points="163.03 41.42 151.35 41.42 151.35 29.75 163.03 41.42"/><polygon class="cls-4" points="150.09 26.45 165.9 26.45 165.9 42.27 150.09 26.45"/><path class="cls-2" d="M51.28,76.82H32a3.67,3.67,0,0,1-3.6-3.72l-4-51.91A3.67,3.67,0,0,1,28,17.46h27.3a3.67,3.67,0,0,1,3.6,3.72l-4,51.91A3.67,3.67,0,0,1,51.28,76.82Z"/><path class="cls-2" d="M55.58,13.85H27.69l-2-3.95A3.76,3.76,0,0,1,29.29,6H54a3.76,3.76,0,0,1,3.6,3.88Z"/><path class="cls-2" d="M25.74,11.28h31.8a3.6,3.6,0,0,1,3.6,3.6v5.64a0,0,0,0,1,0,0h-39a0,0,0,0,1,0,0V14.88A3.6,3.6,0,0,1,25.74,11.28Z"/><polygon class="cls-5" points="57.52 55.17 25.75 55.17 23.79 35.66 59.48 35.66 57.52 55.17"/><line class="cls-1" x1="41.64" y1="40.41" x2="41.64" y2="50.41"/><line class="cls-1" x1="47.01" y1="40.41" x2="46.76" y2="50.41"/><line class="cls-1" x1="52.89" y1="40.41" x2="51.89" y2="50.41"/><line class="cls-1" x1="36.18" y1="40.41" x2="36.51" y2="50.41"/><line class="cls-1" x1="30.38" y1="40.41" x2="31.39" y2="50.41"/></svg>