<svg id="Layer_1" data-name="Layer 1" xmlns="http://www.w3.org/2000/svg" viewBox="0 0 183 149.3"><defs><style>.cls-1,.cls-4{fill:#ffc70a;}.cls-2,.cls-3{fill:none;}.cls-2,.cls-3,.cls-4{stroke:#231f20;stroke-linejoin:round;stroke-width:3px;}.cls-2,.cls-4{stroke-linecap:round;}</style></defs><title>icon--world</title><circle class="cls-1" cx="92.5" cy="74.19" r="44.93"/><circle class="cls-2" cx="90.01" cy="74.19" r="48.29"/><path class="cls-2" d="M90,120.82a50.43,50.43,0,0,1,0-93.26"/><path class="cls-2" d="M90,120.82a50.43,50.43,0,0,0,0-93.27"/><line class="cls-3" x1="47.34" y1="51.56" x2="132.75" y2="51.56"/><line class="cls-3" x1="47.34" y1="96.98" x2="132.75" y2="96.99"/><line class="cls-2" x1="90.01" y1="25.9" x2="90.01" y2="122.48"/><line class="cls-2" x1="138.3" y1="74.19" x2="41.72" y2="74.19"/><path class="cls-2" d="M27.4,64.62a63.32,63.32,0,0,1,52.37-53"/><path class="cls-2" d="M80.42,136.62A63.33,63.33,0,0,1,27.3,82.82"/><path class="cls-2" d="M152.67,82.81a63.33,63.33,0,0,1-53,53.8"/><path class="cls-2" d="M98.58,11.35a63.33,63.33,0,0,1,54,53.58"/><polygon class="cls-4" points="99.5 20.1 90.02 11.59 99.5 3.08 99.5 20.1"/><polygon class="cls-4" points="35.91 64.51 27.4 73.98 18.89 64.51 35.91 64.51"/><polygon class="cls-4" points="144.11 82.89 152.62 73.41 161.13 82.89 144.11 82.89"/><polygon class="cls-4" points="80.26 145.3 89.73 136.79 80.26 128.28 80.26 145.3"/></svg>