<svg id="Layer_1" data-name="Layer 1" xmlns="http://www.w3.org/2000/svg" viewBox="0 0 612 250" style=""><defs><style>.cls-1{fill:none;stroke:#231f20;stroke-miterlimit:10;stroke-width:2px;}.cls-2{font-size:30px;font-family:Sentinel-MediumItalic, Sentinel;font-style:italic;}.cls-2,.cls-3{fill:#231f20;}.cls-3{font-size:53.52px;font-family:Sentinel-Medium, Sentinel;}.cls-4{letter-spacing:0em;}.cls-5{letter-spacing:-0.01em;}.cls-6{letter-spacing:0em;}</style></defs><title>pathways</title><path class="cls-1 OWJrSsrh_0" d="M87.53,41.6h22.68c13.39,0,22.54,6,22.54,17.93v.14c0,12.17-9.29,18.65-22.9,18.65h-5.47V92H87.53Zm21.39,24.7c4.32,0,7.2-1.94,7.2-5.54v-.14c0-3.67-2.66-5.54-7.13-5.54h-4.61V66.29Z"></path><path class="cls-1 OWJrSsrh_1" d="M148.88,41.24h16.71L186.83,92H168.54l-2.66-6.77H148.23L145.64,92h-18Zm12.82,32L157.09,61l-4.61,12.24Z"></path><path class="cls-1 OWJrSsrh_2" d="M195.32,55.85H180.49V41.6H227V55.85H212.17V92H195.32Z"></path><path class="cls-1 OWJrSsrh_3" d="M230.81,41.6h16.85V59.38h15.41V41.6h16.85V92H263.07V73.93H247.66V92H230.81Z"></path><path class="cls-1 OWJrSsrh_4" d="M282.8,41.6h17.64l7.13,24.19,8.14-24.34h14.54l8.14,24.34,7.13-24.19h17.35L346.38,92.36H331.69L322.83,67.3,314,92.36H299.29Z"></path><path class="cls-1 OWJrSsrh_5" d="M376.83,41.24h16.71L414.78,92H396.49l-2.66-6.77H376.18L373.59,92h-18Zm12.82,32L385,61l-4.61,12.24Z"></path><path class="cls-1 OWJrSsrh_6" d="M423.92,74.14l-19-32.55h18.87l8.64,16.56,8.71-16.56h18.65l-19,32.33V92H423.92Z"></path><path class="cls-1 OWJrSsrh_7" d="M454.81,84.44l9-10.73a28.88,28.88,0,0,0,17.64,5.9c3,0,4.32-.79,4.32-2.16v-.14c0-1.44-1.58-2.23-7-3.31-11.3-2.3-21.24-5.54-21.24-16.2v-.14c0-9.58,7.49-17,21.39-17,9.72,0,16.92,2.3,22.75,6.91l-8.21,11.38a26.43,26.43,0,0,0-15.12-5c-2.52,0-3.67.86-3.67,2.09v.14c0,1.37,1.37,2.23,6.7,3.24,12.89,2.38,21.53,6.12,21.53,16.27v.14c0,10.58-8.71,17.07-22.25,17.07C470.43,92.94,461.21,90.06,454.81,84.44Z"></path><text class="cls-2" transform="translate(281.63 143)">in</text><text class="cls-3" transform="translate(164.93 202.31)">Health<tspan class="cls-4" x="160.56" y="0">c</tspan><tspan x="186.03" y="0">a</tspan><tspan class="cls-5" x="212.31" y="0">r</tspan><tspan class="cls-6" x="234.36" y="0">e</tspan></text><style>.OWJrSsrh_0{stroke-dasharray:217 219;stroke-dashoffset:218;animation:OWJrSsrh_draw_0 6600ms linear 0ms infinite,OWJrSsrh_fade 6600ms linear 0ms infinite;}.OWJrSsrh_1{stroke-dasharray:231 233;stroke-dashoffset:232;animation:OWJrSsrh_draw_1 6600ms linear 0ms infinite,OWJrSsrh_fade 6600ms linear 0ms infinite;}.OWJrSsrh_2{stroke-dasharray:194 196;stroke-dashoffset:195;animation:OWJrSsrh_draw_2 6600ms linear 0ms infinite,OWJrSsrh_fade 6600ms linear 0ms infinite;}.OWJrSsrh_3{stroke-dasharray:271 273;stroke-dashoffset:272;animation:OWJrSsrh_draw_3 6600ms linear 0ms infinite,OWJrSsrh_fade 6600ms linear 0ms infinite;}.OWJrSsrh_4{stroke-dasharray:341 343;stroke-dashoffset:342;animation:OWJrSsrh_draw_4 6600ms linear 0ms infinite,OWJrSsrh_fade 6600ms linear 0ms infinite;}.OWJrSsrh_5{stroke-dasharray:231 233;stroke-dashoffset:232;animation:OWJrSsrh_draw_5 6600ms linear 0ms infinite,OWJrSsrh_fade 6600ms linear 0ms infinite;}.OWJrSsrh_6{stroke-dasharray:203 205;stroke-dashoffset:204;animation:OWJrSsrh_draw_6 6600ms linear 0ms infinite,OWJrSsrh_fade 6600ms linear 0ms infinite;}.OWJrSsrh_7{stroke-dasharray:264 266;stroke-dashoffset:265;animation:OWJrSsrh_draw_7 6600ms linear 0ms infinite,OWJrSsrh_fade 6600ms linear 0ms infinite;}@keyframes OWJrSsrh_draw{100%{stroke-dashoffset:0;}}@keyframes OWJrSsrh_fade{0%{stroke-opacity:1;}93.93939393939394%{stroke-opacity:1;}100%{stroke-opacity:0;}}@keyframes OWJrSsrh_draw_0{12.121212121212121%{stroke-dashoffset: 218}16.16573902288188%{ stroke-dashoffset: 0;}100%{ stroke-dashoffset: 0;}}@keyframes OWJrSsrh_draw_1{16.16573902288188%{stroke-dashoffset: 232}20.470006184291897%{ stroke-dashoffset: 0;}100%{ stroke-dashoffset: 0;}}@keyframes OWJrSsrh_draw_2{20.470006184291897%{stroke-dashoffset: 195}24.0878169449598%{ stroke-dashoffset: 0;}100%{ stroke-dashoffset: 0;}}@keyframes OWJrSsrh_draw_3{24.0878169449598%{stroke-dashoffset: 272}29.134199134199136%{ stroke-dashoffset: 0;}100%{ stroke-dashoffset: 0;}}@keyframes OWJrSsrh_draw_4{29.134199134199136%{stroke-dashoffset: 342}35.47928262213977%{ stroke-dashoffset: 0;}100%{ stroke-dashoffset: 0;}}@keyframes OWJrSsrh_draw_5{35.479282622139756%{stroke-dashoffset: 232}39.78354978354977%{ stroke-dashoffset: 0;}100%{ stroke-dashoffset: 0;}}@keyframes OWJrSsrh_draw_6{39.78354978354977%{stroke-dashoffset: 204}43.56833642547927%{ stroke-dashoffset: 0;}100%{ stroke-dashoffset: 0;}}@keyframes OWJrSsrh_draw_7{43.56833642547928%{stroke-dashoffset: 265}48.484848484848484%{ stroke-dashoffset: 0;}100%{ stroke-dashoffset: 0;}}</style></svg>