<?xml version="1.0" encoding="utf-8"?>
<!-- Generated by IcoMoon.io -->
<!DOCTYPE svg PUBLIC "-//W3C//DTD SVG 1.1//EN" "http://www.w3.org/Graphics/SVG/1.1/DTD/svg11.dtd">
<svg version="1.1" xmlns="http://www.w3.org/2000/svg" xmlns:xlink="http://www.w3.org/1999/xlink" width="40" height="40" viewBox="0 0 40 40">
	  <g id="edit-modify" data-iconmelon="Streamline Icon Set:5541559726ac4fe755565839637c8bcd">
	    <g id="Expanded">
	      <g>
	        <g>
	          <path  d="M24.666,32H0V2.667h19.332c0.368,0,0.667,0.299,0.667,0.666C19.999,3.701,19.7,4,19.332,4H1.333v26.666
					h21.999V16c0-0.368,0.299-0.667,0.667-0.667s0.667,0.299,0.667,0.667V32z"></path>
	        </g>
	        <g>
	          <path  d="M14.667,11.333"></path>
	        </g>
	        <g>
	          <path  d="M14.424,18.242c-0.173,0-0.344-0.067-0.472-0.195c-0.203-0.203-0.254-0.513-0.125-0.77l1.885-3.771
					c0.032-0.064,0.074-0.123,0.125-0.174L28.565,0.604C28.961,0.209,29.443,0,29.959,0c0.809,0,1.568,0.522,1.89,1.3
					c0.308,0.743,0.139,1.54-0.454,2.133L18.666,16.16c-0.051,0.051-0.109,0.094-0.173,0.126l-3.771,1.886
					C14.627,18.22,14.526,18.242,14.424,18.242z M16.858,14.198l-0.943,1.886l1.886-0.943L30.452,2.49
					c0.21-0.21,0.266-0.438,0.167-0.681c-0.114-0.271-0.397-0.477-0.66-0.477c-0.157,0-0.309,0.072-0.451,0.214L16.858,14.198z"></path>
	        </g>
	        <g>
	          <path  d="M29.037,5.514c-0.171,0-0.342-0.065-0.472-0.195L26.68,3.433c-0.26-0.261-0.26-0.683,0-0.943
					c0.261-0.26,0.683-0.26,0.943,0l1.885,1.886c0.261,0.261,0.261,0.683,0,0.943C29.378,5.449,29.207,5.514,29.037,5.514z"></path>
	        </g>
	      </g>
	    </g>
	  </g>
</svg>
