<svg id="svg-source" height="0" version="1.1" 
  xmlns="http://www.w3.org/2000/svg" width="32" height="32" 
  xmlns:xlink="http://www.w3.org/1999/xlink" viewbox="0 0 32 32">
  	<title>Book</title>
	<desc>Book icon</desc>
  <g id="book" data-iconmelon="Pictograms reloaded:38f4da7dfff04114b1bb2436513cfe2b">
    <path d="M4.384,11.216h8.146c0.416,0,0.753-0.338,0.753-0.752c0-0.416-0.337-0.752-0.753-0.752H4.384
	c-0.414,0-0.751,0.336-0.751,0.752C3.633,10.878,3.97,11.216,4.384,11.216z M4.384,22.079h8.146c0.416,0,0.753-0.337,0.753-0.753
	c0-0.415-0.337-0.752-0.753-0.752H4.384c-0.414,0-0.751,0.337-0.751,0.752C3.633,21.742,3.97,22.079,4.384,22.079z M4.384,18.567
	h8.146c0.416,0,0.753-0.335,0.753-0.751s-0.337-0.752-0.753-0.752H4.384c-0.414,0-0.751,0.336-0.751,0.752S3.97,18.567,4.384,18.567
	z M4.384,14.726h8.146c0.416,0,0.753-0.337,0.753-0.753c0-0.414-0.337-0.752-0.753-0.752H4.384c-0.414,0-0.751,0.338-0.751,0.752
	C3.633,14.389,3.97,14.726,4.384,14.726z M27.864,9.712h-8.146c-0.415,0-0.752,0.336-0.752,0.752v3.509
	c0,0.416,0.337,0.753,0.752,0.753h8.146c0.415,0,0.752-0.337,0.752-0.753v-3.509C28.616,10.048,28.279,9.712,27.864,9.712z
	 M27.112,13.221h-6.642v-2.005h6.642V13.221z M30.246,5.45H1.754C0.787,5.45,0,6.28,0,7.301v17.397c0,1.021,0.787,1.851,1.754,1.851
	h28.492c0.967,0,1.754-0.83,1.754-1.851V7.301C32,6.28,31.213,5.45,30.246,5.45z M15.249,25.045H1.754
	c-0.118,0-0.25-0.148-0.25-0.347V7.301c0-0.198,0.132-0.347,0.25-0.347h13.495V25.045z M30.497,24.698
	c0,0.204-0.133,0.347-0.251,0.347H16.753V6.954h13.493c0.118,0,0.251,0.143,0.251,0.347V24.698z M27.864,17.064h-8.146
	c-0.415,0-0.752,0.338-0.752,0.753s0.337,0.752,0.752,0.752h8.146c0.415,0,0.752-0.337,0.752-0.752S28.279,17.064,27.864,17.064z
	 M27.864,20.574h-8.146c-0.415,0-0.752,0.337-0.752,0.752c0,0.416,0.337,0.753,0.752,0.753h8.146c0.415,0,0.752-0.337,0.752-0.753
	C28.616,20.911,28.279,20.574,27.864,20.574z"></path>
  </g>
</svg>